<?xml version="1.0" encoding="utf-8"?>
<!-- Generator: Adobe Illustrator 25.0.0, SVG Export Plug-In . SVG Version: 6.00 Build 0)  -->
<svg version="1.1" id="Layer_1" xmlns="http://www.w3.org/2000/svg" xmlns:xlink="http://www.w3.org/1999/xlink" x="0px" y="0px"
	 width="141.7362061px" height="26.8393459px" viewBox="0 0 141.7362061 26.8393459"
	 style="enable-background:new 0 0 141.7362061 26.8393459;" xml:space="preserve">
<style type="text/css">
	.st0{fill:#16AB03;}
	.st1{fill:#5E33BF;}
</style>
<g>
	<g>
		<path class="st0" d="M6.853992,19.2698002c0.3933997,1.0499001,0.8710999,2.0762997,1.4429002,3.0667
			c0.4108,0.7115002,0.8646994,1.3934002,1.3544998,2.0457001c4.8381996-1.1875,9.1420994-3.7346001,12.4818993-7.2150002
			c-0.7736988-1.8073997-1.8020992-3.4807005-3.0403996-4.9742002C16.0520916,15.8604002,11.7476921,18.4435997,6.853992,19.2698002
			z"/>
		<path class="st1" d="M9.636692,0c-1.1626997,1.5495-2.1025,3.2671001-2.7860999,5.1156001
			c4.8951001,0.8255997,9.2007999,3.4091001,12.2423,7.0773997c1.2383003-1.4934998,2.2667007-3.1667995,3.0403996-4.9741998
			C18.7900925,3.7348001,14.4808922,1.186,9.636692,0z"/>
		<path d="M6.853992,19.2698002c-1.4714398-3.9268999-1.69175-8.2023001-0.5846-12.3341007
			c0.1659999-0.6195002,0.3614998-1.2259998,0.5812001-1.8200998C5.7492318,4.9298,4.6183119,4.8323002,3.464972,4.8323002
			c-0.8245001,0-1.6373001,0.0506997-2.4363201,0.1466999c-1.34466,4.6360998-1.3972501,9.6407003-0.00265,14.4276009
			c0.79988,0.096199,1.61356,0.1469994,2.4389701,0.1469994C4.6195321,19.5536003,5.7516117,19.4559002,6.853992,19.2698002z"/>
	</g>
	<g>
		<g>
			<path d="M38.7086906,18.7199993c2.594902,0,4.5760002-1.3950996,5.3013-3.7107992h4.2689018
				c-1.1439018,4.6036005-5.161602,7.2822008-9.5702019,7.2822008c-5.7476006,0-10.1837978-4.2131004-10.1837978-10.1002007
				c0-5.8872004,4.4361973-10.1002998,10.1837978-10.1002998c4.4085999,0,8.4263,2.6785002,9.5702019,7.2822003h-4.2689018
				c-0.7252998-2.3158002-2.706398-3.7108002-5.3013-3.7108002c-3.6828003,0-6.1380997,2.7901001-6.1380997,6.5289001
				C32.570591,15.9299002,35.0258904,18.7199993,38.7086906,18.7199993z"/>
			<path d="M53.8877907,21.9566002h-3.5990982V2.4256999h3.5990982V21.9566002z"/>
			<path d="M63.8767929,13.4467001c0-0.9207001-0.7252998-1.5067005-2.1203995-1.5067005
				c-1.2835007,0-2.9018021,0.6417007-3.850502,1.1998005l-1.4230003-2.7342997c0,0,2.3717003-1.5625,5.4687004-1.5625
				c2.9018021,0,5.5524979,1.3392,5.5524979,4.7152996v8.3983002h-3.6272964v-1.1998005
				c-0.6696014,1.0044994-2.1203995,1.5346012-3.5713997,1.5346012c-2.7064018,0-4.4640999-1.9252014-4.4640999-4.0178013
				c0-2.4273996,1.7854996-3.9340992,4.6315994-3.9340992h2.5111008c0.6138,0,0.8927994-0.2790003,0.8927994-0.7533007V13.4467001z
				 M63.8767929,17.3808002v-0.9207001c-0.2232018,0.2231998-0.6138,0.2789001-1.1161003,0.2789001h-1.3670998
				c-1.1439018,0-1.8134995,0.5021992-1.8134995,1.3950996c0,0.8649006,0.6973991,1.5067005,1.8134995,1.5067005
				C62.7048912,19.6408005,63.8767929,18.9712009,63.8767929,17.3808002z"/>
			<path d="M77.4931946,12.7491999h-1.5345001c-1.8416061,0-2.6786041,0.8649006-2.6786041,3.0970001v6.1104002h-3.6272964v-12.7788
				h3.5155945v2.0367994c0.5023041-1.3671999,1.7299042-2.2041998,3.3202057-2.2041998
				c0.3348999,0,0.6697006,0.0278997,1.0046005,0.1115999V12.7491999z"/>
			<path d="M84.6080933,21.9566002h-3.6270981v-9.7097006h-1.7856064V9.1778002h5.4127045V21.9566002z M82.6270905,2.4256999
				c1.3115005,0,2.3437042,1.0603001,2.3437042,2.3437002c0,1.3113999-1.0322037,2.3157997-2.3437042,2.3157997
				c-1.2834015,0-2.3157959-1.0043998-2.3157959-2.3157997C80.3112946,3.4860001,81.343689,2.4256999,82.6270905,2.4256999z"/>
			<path d="M92.7556915,18.0503998l2.9016037-8.8725996h3.8224945l-4.5477982,12.7788h-4.4920959l-4.3526001-12.7788h3.9339981
				L92.7556915,18.0503998z"/>
			<path d="M107.6832886,13.4467001c0-0.9207001-0.725502-1.5067005-2.1205978-1.5067005
				c-1.2834015,0-2.9018021,0.6417007-3.850502,1.1998005l-1.4227982-2.7342997c0,0,2.3714981-1.5625,5.4684982-1.5625
				c2.9018021,0,5.5524979,1.3392,5.5524979,4.7152996v8.3983002h-3.6270981v-1.1998005
				c-0.6697998,1.0044994-2.1205978,1.5346012-3.5713959,1.5346012c-2.706604,0-4.4643021-1.9252014-4.4643021-4.0178013
				c0-2.4273996,1.7856979-3.9340992,4.6316986-3.9340992h2.5110016c0.6138,0,0.8929977-0.2790003,0.8929977-0.7533007V13.4467001z
				 M107.6832886,17.3808002v-0.9207001c-0.2233963,0.2231998-0.6138992,0.2789001-1.1161957,0.2789001h-1.3671036
				c-1.1439972,0-1.8135986,0.5021992-1.8135986,1.3950996c0,0.8649006,0.6975021,1.5067005,1.8135986,1.5067005
				C106.5111923,19.6408005,107.6832886,18.9712009,107.6832886,17.3808002z"/>
			<path d="M118.3141861,4.323v4.8548002h2.7621002v3.0690994h-2.7621002v5.7755995
				c0,0.8092003,0.6416016,0.9208012,1.1996002,0.9208012c0.9207001,0,1.6740036-0.0837002,1.6740036-0.0837002v3.0970001
				c0,0-1.7576981,0.1674004-2.8181,0.1674004c-1.8134003,0-3.6828003-0.3069-3.6828003-2.8738003v-7.0033007h-2.0088959V9.1778002
				h2.0088959V4.323H118.3141861z"/>
			<path d="M135.5573883,16.6273994h-9.5142975c0.1951981,1.4230003,1.3111954,2.5669003,2.9295959,2.5669003
				c1.0601959,0,2.0646057-0.4463005,2.5668945-1.3113003l3.7666016,0.3906002
				c-1.1438904,2.7343006-3.543396,4.0178013-6.389389,4.0178013c-3.822403,0-6.6962051-2.8180008-6.6962051-6.7242012
				s2.8179016-6.7241993,6.6406021-6.7241993c3.5153961,0,6.6961975,2.2879,6.6961975,7.6450005V16.6273994z
				 M125.9591904,14.2000999h5.719902c-0.1952057-1.2834997-1.2834015-2.3437996-2.8179016-2.3437996
				C127.3264923,11.8563004,126.2382889,12.8329,125.9591904,14.2000999z"/>
		</g>
		<g>
			<path d="M137.522995,3.3464h-0.9778137v2.5708001h-1.0172882V3.3464h-0.9777985V2.4432001h2.9729004V3.3464z"/>
			<path d="M139.5079956,5.1729999l-0.4466095-1.2406998v1.9849h-0.9776917v-3.474h1.3416901l0.506897,1.4492998
				l0.5417175-1.4492998h1.2622833v3.474h-0.9974976v-1.9849l-0.4467926,1.2406998H139.5079956z"/>
		</g>
	</g>
</g>
</svg>
